<svg id="Layer_1" data-name="Layer 1" xmlns="http://www.w3.org/2000/svg" viewBox="0 0 260.68 261.73"><defs><style>.cls-1{fill:#fff;}.cls-2{fill:#696969;}</style></defs><title>logo1</title><circle class="cls-1" cx="130.34" cy="130.89" r="130.34"/><path class="cls-2" d="M241.9,87.78l-2.53.57c0.78-2.78,1.37-4.81,1.79-6.2a1.56,1.56,0,0,0-1.83-2l-1.7.37a1.56,1.56,0,0,0-1.16,1.07c-0.34,1.14-1,3.51-2.29,7.86l-3.28.71a0.83,0.83,0,0,0-.62.57v0a0.83,0.83,0,0,0,1,1l2.44-.53c-0.22.75-.43,1.49-0.63,2.24-2.69,4-6.54,9.62-7.25,10.52s-1.29,1.78-1.65,1.55,0.18-2.19.48-3.18c0.56-2,2-7.05,2.91-10.14a1.56,1.56,0,0,0-1.84-1.95l-1.71.38a1.55,1.55,0,0,0-1.16,1.1c-0.2.72-.51,1.83-0.9,3.15-0.81-1.84-2.56-3.28-4.42-2.88-2.71.59-6.13,3.51-9.13,10.6-1.94,2.85-3.75,5.45-4.21,6-0.66.9-1.29,1.78-1.62,1.55s0.14-2.19.44-3.18l1.63-5.76c1.46-5.28-.88-6.28-3.39-5.73-1.57.34-6,2.77-10.72,12.79,0.52-1.89.78-2.87,1.2-4.26,1.63-5.11-.84-6.29-3.39-5.73-1.54.33-6,2.76-10.69,12.78l2.46-8.62a1.56,1.56,0,0,0-1.83-2l-1.71.37a1.56,1.56,0,0,0-1.17,1.09l-1.49,5.19c-1.59,2.08-3.68,4.24-5.45,4.29a16.63,16.63,0,0,0,.07-3.47c-0.13-2.33-1.15-5-2.94-4.6a3.62,3.62,0,0,0-2.2,1.84c-0.23-.77-0.58-1.41-1.17-1.29-2.71.59-6.41,3.35-9.12,10.35-2,3-3.93,5.72-4.41,6.33-0.66.9-1.29,1.79-1.62,1.55s0.14-2.19.44-3.18c0.83-3,1-3.16,1.51-4.91,1.29-4.66-1.59-2.29-4.42-3.19a2.6,2.6,0,0,1-.76-0.38l0-.13c1.48-2.52,2.53-5,.58-5.73a4.81,4.81,0,0,0-6.16,2.22c-1.51,3.07.69,5.22,2.59,6.09-2.69,4-6.84,10.07-7.58,11s-1.29,1.78-1.65,1.55,0.18-2.19.48-3.18c0.66-2.33,4.6-16.15,6.24-21.9a1.56,1.56,0,0,0-1.83-1.95l-1.71.37a1.55,1.55,0,0,0-1.17,1.09c-0.65,2.3-2.47,8.65-4.24,14.89-0.81-1.84-2.55-3.25-4.41-2.85-2.72.59-6.15,3.53-9.14,10.64-1.94,2.83-3.74,5.41-4.2,6-0.66.9-1.29,1.78-1.62,1.55s0.18-2.19.44-3.18c0.87-3,1.18-4.05,1.63-5.76,1.46-5.28-.84-6.29-3.4-5.73-1.54.33-6,2.76-10.69,12.75l2.46-8.58a1.56,1.56,0,0,0-1.83-2l-1.7.37a1.56,1.56,0,0,0-1.17,1.09l-1.8,6.27c-2.44,3.59-5.13,7.5-5.7,8.23-0.69.9-1.32,1.79-1.65,1.55s0.18-2.19.48-3.18c0.56-2,2-7,2.9-10.13a1.56,1.56,0,0,0-1.84-2l-1.72.38a1.56,1.56,0,0,0-1.16,1.09c-0.28,1-.77,2.71-1.34,4.72-1.23,3.82-5.5,10.84-7.33,11.23s-1.36-1.86-1.06-2.85c0.56-2,2-7,2.9-10.13a1.56,1.56,0,0,0-1.84-2l-1.72.38A1.55,1.55,0,0,0,73.63,124l-1.86,6.49c-2.39,3.52-5,7.28-5.55,8-0.69.9-1.29,1.79-1.65,1.55s0.18-2.19.48-3.18c0.56-2,2-7,2.9-10.13a1.56,1.56,0,0,0-1.84-2l-1.71.38a1.56,1.56,0,0,0-1.16,1.1c-0.2.72-.51,1.82-0.89,3.15-0.81-1.84-2.56-3.28-4.42-2.88-2.88.62-6.55,3.88-9.67,11.94A16.93,16.93,0,0,0,46.91,146c-4.31,1.67-11.06-.2-17.22-1.16,0.14-.44.31-1,0.48-1.44,0.59-1.87,1.79-6.14,2.94-10.32a12.66,12.66,0,0,0,5.48-3.44c4-4.53,3.7-13.43-2.87-12-4.15.9-5.56,6.09-6.25,8.61,0,0-.5,1.82-1.19,4.3a9.65,9.65,0,0,1-5.9-2.42s-2.49,2.73,0,4.48A9.5,9.5,0,0,0,27.34,134c-1.11,3.9-2.3,8.06-2.71,9.31q-0.21.71-.43,1.33c-16.74.6-14.16,15.94-6.31,14.25,3.83-.83,7-3.31,10-9.65,6.39,1.56,10.62,4.65,15.39,3.62A6.42,6.42,0,0,0,48,149.16a3.78,3.78,0,0,0,4.06,1.38c2.26-.49,4.23-2.59,5.74-4.94-0.36,2.61.86,3.51,2.69,3.11,1.37-.3,3-1.47,5.23-4.76,0.72-1.06,2.22-3.35,3.89-5.94l-0.46,1.57c-1.12,3.84.32,7.19,3.59,6.48,2.13-.46,5.43-4.8,8.1-9.41-0.36,1.21-.64,2.12-0.77,2.63-1.13,3.8.19,5.16,2.35,4.69,1.37-.3,3-1.46,5.23-4.76,0.74-1.09,2.31-3.49,4-6.16l-2,7a1.54,1.54,0,0,0,1.8,1.93l1.78-.38a1.53,1.53,0,0,0,1.13-1c2.74-8.55,9.32-18,11.16-18.38,1.11-.24,1,1.29.2,4.1-0.91,3.07-1.45,5.17-2.26,7.91-1.13,3.8.19,5.16,2.35,4.69,1.34-.29,3-1.46,5.23-4.76,0.56-.82,1.57-2.36,2.76-4.2-0.21,4.42,2,6.8,5.18,6.11,2.26-.49,4.23-2.59,5.74-4.94-0.36,2.61.86,3.51,2.69,3.11,1.37-.3,3-1.47,5.23-4.76,1.72-2.53,7.81-12,10.25-15.84,0.66,0.3,1.12,1,.49,2.84-1,3-2.05,7-2.86,9.72-1.1,3.8.19,5.16,2.35,4.69,1.34-.29,3-1.47,5.23-4.76,0.65-.95,1.91-2.86,3.36-5.09-0.13,4.91,2.67,7.42,6.09,6.68,3.6-.78,6.9-4.16,9.32-10.26,0.26-.71.49-1.37,0.69-2a7.81,7.81,0,0,0,4.62-2.42l-2.81,9.76a1.59,1.59,0,0,0,1.87,2l2.56-.55c2.56-8.76,9.52-18.82,11.42-19.23,1.11-.24,1,1.26.19,4.06-0.64,2.31-2.17,7.72-3.08,10.94a1.59,1.59,0,0,0,1.87,2l1.65-.36a1.59,1.59,0,0,0,1.19-1.11l0.19-.66c2.85-8.35,9.1-17.26,10.87-17.64,1.11-.24,1,1.28.2,4.1-0.88,3.06-1.45,5.17-2.26,7.91-1.13,3.8.19,5.16,2.35,4.69,1.34-.29,3-1.47,5.23-4.76,0.57-.82,1.59-2.37,2.79-4.22-0.22,4.43,2,6.82,5.18,6.13,2.26-.49,4.23-2.59,5.74-4.94-0.36,2.61.86,3.51,2.69,3.11,1.37-.3,3-1.47,5.23-4.76,1-1.5,3.57-5.43,6-9.18-0.84,3.4-1.44,6-1.66,6.77-0.31,2.23,1.23,5.24,3.74,4.69,1.37-.3,3.22-1,4.31-4.76-1.37-.15-3.23-1.76-1.6-7.08,0.33-1.17,1.5-5.25,2.78-9.77l3.4-.74a0.83,0.83,0,0,0,.62-0.59v0A0.83,0.83,0,0,0,241.9,87.78ZM35.29,125c0.36-1.34.72-3,1.8-3.23,1.24-.27,1.85,2.41-0.3,5.44a7,7,0,0,1-2.68,2.15C34.57,127.69,35,126.16,35.29,125ZM17.2,154.67c-3,.64-3.09-5.77,5.22-6C20.32,152.8,18.77,154.33,17.2,154.67ZM60,136.7c-1.33,4-3.78,7.52-5.48,7.89s-2-2.59-.63-6.57,3.81-7.53,5.51-7.9S61.41,132.71,60,136.7Zm67-14.46c-1.33,4-3.78,7.52-5.48,7.89s-2-2.59-.63-6.57,3.81-7.53,5.51-7.9S128.37,118.25,127,122.24Zm31.82-.17c-1.7.37-2-2.59-.63-6.57a18,18,0,0,1,4.12-7.08,6.42,6.42,0,0,0,1.61,5.4C162.9,117.36,161,121.59,158.82,122.07Zm60.8-19.84c-1.33,4-3.78,7.52-5.48,7.89s-2-2.59-.63-6.57,3.81-7.53,5.51-7.9S221,98.24,219.62,102.23Z"/><path class="cls-2" d="M235.24,128l-2.53.57c0.78-2.78,1.37-4.81,1.79-6.2a1.56,1.56,0,0,0-1.83-2l-1.7.37a1.56,1.56,0,0,0-1.16,1.07c-0.34,1.14-1,3.51-2.29,7.86l-3.28.71a0.83,0.83,0,0,0-.62.57v0a0.83,0.83,0,0,0,1,1l2.44-.53c-0.31,1.09-.62,2.18-0.91,3.26-4.09,8.76-8.9,16.12-13.9,17.2-3.86.83-5.29-2.18-3.59-7.27,1.32-4,3.78-7.52,5.48-7.89s0.73,3.85-1,6.06c0,0,3.51,2.63,4.7.08,3.21-7-.51-10.74-5.21-9.72-2.91.63-6.84,4.15-9.24,10.76a15.85,15.85,0,0,0-1,5.09c-2.57,3.63-5.28,6.16-8.06,6.76S190,155,190,152.27a4.18,4.18,0,0,0,1.94.61c3,0.27,5.94-2,8-6.07,3.41-6.86-.51-10.74-5.25-9.71-2.88.62-6.81,4.14-9.21,10.75-0.06.18-.12,0.35-0.18,0.53-2,2.79-4,5.63-6,8.12,1.5-5.25,3-10.76,4-14.07A1.91,1.91,0,0,0,181,140l-0.93.2a1.91,1.91,0,0,0-1.44,1.36l-1,3.62c-1.61,2.4-4.33,5.75-6.54,5.82a16.63,16.63,0,0,0,.07-3.47c-0.13-2.33-1.15-5-2.94-4.6a3.62,3.62,0,0,0-2.2,1.84c-0.23-.77-0.58-1.41-1.17-1.29-2.71.58-6.4,3.34-9.11,10.31-2,3-4,5.76-4.43,6.37-0.69.9-1.32,1.79-1.65,1.55s0.18-2.19.48-3.18c0.83-3,1-3.16,1.47-4.9,1.29-4.66-1.56-2.3-4.39-3.19a2.63,2.63,0,0,1-.85-0.43c1.5-2.55,2.57-5.07.63-5.82a4.85,4.85,0,0,0-6.19,2.23c-1.38,2.8.36,4.85,2.12,5.84-2.36,3.54-4.73,7.17-6.08,9a1,1,0,0,0-.07,1.09,23.8,23.8,0,0,1,1.4,3.06,1,1,0,0,0,1.93,0,97.91,97.91,0,0,1,5-12.47c0.86,0.19,1.76.71,1,3-1,3-2.05,7-2.86,9.72-1.13,3.8.19,5.16,2.35,4.69,1.34-.29,3-1.46,5.23-4.76,0.65-.95,1.91-2.87,3.36-5.11-0.14,4.92,2.67,7.44,6.09,6.7,3.6-.78,6.9-4.16,9.32-10.26,0.26-.71.49-1.37,0.69-2,2-.1,4-1.62,5.65-3.47l-3.49,12.69c-5.76,5.35-10.83,8-10,11.71,0.62,2.88,3.94,3.67,6,3.23,4.15-.9,5.29-3.88,7-9.08,0.35-1.07,1.42-4.82,2.7-9.34,2-2.24,4.12-4.7,6.25-7.38-0.08,5.06,3.09,8.07,9.15,6.76,3.61-.78,6.82-3.59,9.55-7.24,1.28,2.85,4.24,4.26,8.4,3.36,4.79-1,8.88-5.66,12.06-11.1-0.26,1.07-.45,1.85-0.55,2.2-0.31,2.23,1.23,5.24,3.74,4.69,1.37-.3,3.22-1,4.31-4.76-1.37-.15-3.23-1.76-1.6-7.08,0.33-1.17,1.5-5.25,2.78-9.77l3.4-.74a0.83,0.83,0,0,0,.62-0.59v0A0.83,0.83,0,0,0,235.24,128Zm-73.73,33.58c-1.7.37-2-2.59-.63-6.57a18,18,0,0,1,4.12-7.08,6.42,6.42,0,0,0,1.61,5.4C165.59,156.85,163.73,161.09,161.51,161.57Zm9.18,8.93c-1,3.54-1.41,5.19-2.76,5.48a1.22,1.22,0,0,1-1.58-1.13c-0.33-1.5,1.69-3.13,5-6.75Zm25.48-29.84c1.67-.36.73,3.85-1,6.06-1.26,1.61-2.82,3.24-4.69,2.35a3.3,3.3,0,0,0,.16-0.51C192,144.54,194.47,141,196.17,140.67Z"/><path class="cls-2" d="M130,140.21c-2.23.71-4.13,2.79-5.52,4.71v-0.06a1.88,1.88,0,0,0-2.42-2.12l-1.61.51a1.91,1.91,0,0,0-1.3,1.48c-0.62,3.43-2.48,13.77-3.4,18.59-14.9,6.79-13.68,20.41-6.19,18,4.72-1.5,8.88-4.84,11.24-16.16,0.16-.61.37-1.8,0.65-3.37,1.09,1.87,3,3.25,6.54,2.13s7.23-4.84,8.87-12.7S134.48,138.79,130,140.21Zm-21,37.42c-2.87.92-1.65-6.92,6.09-11.07C113.26,174.17,111,177,109,177.63Zm21.78-25.38c-0.93,4.34-2.37,6.44-4.5,7.13-3.19,1-3.44-3-3.55-4.52,0.28-1.53.55-3.12,0.81-4.61,0.7-1.56,2.64-5.27,5.12-6.06C131.49,143.29,131.78,147.93,130.81,152.25Z"/><path class="cls-2" d="M182.63,135.31a6.48,6.48,0,0,0,4.45-4.73c0.45-2.19-.78-3.63-2.78-3.2a6.47,6.47,0,0,0-4.45,4.76C179.37,134.34,180.64,135.74,182.63,135.31Z"/><path class="cls-2" d="M88.19,104.39a0.89,0.89,0,0,0-1.48.08,7,7,0,0,1-3.15,3c-1.5.56-2.44-.1-2.66-1.61a2.32,2.32,0,0,0,1.12.18c1.69-.09,3.11-1.55,3.91-4,1.33-4-1.13-5.86-3.66-4.92-1.45.54-3.21,2.58-4.07,6-1,1.5-2,2.84-2.21,3.15-0.37.5-.72,1-0.9,0.86a3.68,3.68,0,0,1,.25-1.76c0.46-1.64.7-2.47,1-3.43,0.74-2.57-.57-3.26-2-3-0.87.19-3.34,1.54-5.95,7.08l3.4-11.82a0.54,0.54,0,0,0-.64-0.67l-2,.47h0l-4.57,1-2.87.62-5.61,1.21a0.78,0.78,0,0,0-.6.58L55.15,99a0.4,0.4,0,0,0,.1.4,0.4,0.4,0,0,0,.39.13L61,98.41c-0.7,2.49-1.71,6.07-2.3,8-8.6,3-9,10.63-4.75,9.71,2.69-.58,5.35-2.24,7.26-8.37,0.38-1.22,1.91-6.67,2.86-10l4.34-.94L64,112.28c-0.23.79,0,2,.82,1.84a4.87,4.87,0,0,0,1.55-.7c2.17-4.44,5.3-10.46,6.33-10.68,0.62-.13.57,0.71,0.11,2.28s-0.81,2.87-1.26,4.4c-0.61,2.11.1,2.87,1.3,2.61,0.74-.16,1.67-0.82,2.91-2.64,0.4-.58,1.21-1.81,2.12-3.21,0.09,3.27,2.13,5,5.62,3.73,2-.73,3.44-2.63,4.75-4.86A0.57,0.57,0,0,0,88.19,104.39Zm-34.35,9.68c-1.63.35-.18-4,4.32-5.88C56.74,112.3,55,113.82,53.85,114.06ZM83.4,99c0.89-.33.71,2.06-0.06,3.41-0.57,1-1.29,2-2.39,1.66a1.86,1.86,0,0,0,0-.3C81.42,101.48,82.49,99.35,83.4,99Z"/></svg>