<svg id="Layer_1" data-name="Layer 1" xmlns="http://www.w3.org/2000/svg" viewBox="0 0 343.05 183.23"><title>logo</title><path d="M294.74,30.13l-3,.67c0.92-3.27,1.61-5.64,2.1-7.28a1.83,1.83,0,0,0-2.14-2.31l-2,.43a1.82,1.82,0,0,0-1.37,1.26c-0.4,1.33-1.23,4.11-2.69,9.22l-3.85.83a1,1,0,0,0-.73.67v0a1,1,0,0,0,1.14,1.22l2.86-.62c-0.25.87-.5,1.75-0.74,2.62-3.15,4.68-7.67,11.29-8.51,12.34s-1.52,2.09-1.94,1.82,0.21-2.57.56-3.73c0.66-2.34,2.37-8.27,3.41-11.9a1.83,1.83,0,0,0-2.16-2.29l-2,.45a1.83,1.83,0,0,0-1.37,1.29c-0.24.84-.6,2.14-1.05,3.69-0.95-2.16-3-3.85-5.19-3.38-3.18.69-7.2,4.12-10.71,12.44C253.11,51,251,54,250.45,54.7c-0.78,1.05-1.51,2.09-1.9,1.81s0.17-2.57.52-3.73L251,46c1.71-6.19-1-7.37-4-6.73-1.84.4-7,3.25-12.58,15,0.61-2.22.92-3.37,1.41-5,1.92-6-1-7.37-4-6.73-1.8.39-7,3.24-12.54,15l2.89-10.11A1.83,1.83,0,0,0,220,45.17l-2,.43a1.83,1.83,0,0,0-1.37,1.28L214.92,53c-1.87,2.45-4.32,5-6.39,5a19.52,19.52,0,0,0,.08-4.07c-0.15-2.74-1.34-5.85-3.45-5.4a4.25,4.25,0,0,0-2.58,2.16c-0.28-.9-0.68-1.66-1.37-1.51-3.18.69-7.52,3.93-10.71,12.14-2.37,3.47-4.61,6.71-5.18,7.43-0.78,1.05-1.51,2.09-1.9,1.82s0.17-2.57.52-3.73c1-3.46,1.21-3.71,1.77-5.76,1.51-5.47-1.87-2.69-5.18-3.74a3.05,3.05,0,0,1-.9-0.45l0-.16c1.73-3,3-5.87.68-6.73a5.64,5.64,0,0,0-7.23,2.6c-1.77,3.6.81,6.13,3,7.14-3.16,4.7-8,11.82-8.9,12.92s-1.51,2.09-1.93,1.82,0.21-2.57.56-3.73c0.77-2.73,5.4-19,7.32-25.69A1.83,1.83,0,0,0,171,42.8l-2,.43a1.82,1.82,0,0,0-1.37,1.28c-0.77,2.69-2.89,10.15-5,17.47-0.95-2.16-3-3.81-5.18-3.34-3.19.69-7.21,4.14-10.73,12.49-2.28,3.32-4.38,6.35-4.93,7-0.78,1.05-1.51,2.09-1.9,1.81s0.21-2.57.52-3.73c1-3.47,1.38-4.76,1.91-6.76,1.71-6.19-1-7.37-4-6.73-1.8.39-7,3.24-12.55,15l2.89-10.07a1.83,1.83,0,0,0-2.15-2.3l-2,.43a1.83,1.83,0,0,0-1.37,1.28L121,74.44c-2.86,4.21-6,8.8-6.68,9.66-0.82,1.06-1.55,2.1-1.93,1.82s0.21-2.57.56-3.73c0.66-2.33,2.37-8.27,3.41-11.89A1.83,1.83,0,0,0,114.23,68l-2,.45a1.83,1.83,0,0,0-1.36,1.28c-0.33,1.16-.91,3.18-1.57,5.54-1.44,4.49-6.45,12.72-8.6,13.18s-1.6-2.18-1.24-3.34c0.66-2.33,2.37-8.27,3.41-11.89a1.83,1.83,0,0,0-2.16-2.29l-2,.45a1.81,1.81,0,0,0-1.36,1.27l-2.18,7.62c-2.8,4.13-5.84,8.54-6.51,9.38-0.81,1.06-1.51,2.09-1.93,1.82s0.21-2.57.56-3.73c0.66-2.33,2.37-8.27,3.41-11.89a1.83,1.83,0,0,0-2.16-2.29l-2,.45a1.83,1.83,0,0,0-1.37,1.29c-0.24.84-.6,2.14-1,3.69-0.95-2.16-3-3.85-5.19-3.38-3.38.73-7.69,4.55-11.35,14A19.86,19.86,0,0,0,66,98.46c-5.05,2-13-.24-20.2-1.36,0.17-.52.36-1.12,0.56-1.69,0.69-2.2,2.1-7.2,3.45-12.11a14.85,14.85,0,0,0,6.43-4c4.71-5.31,4.35-15.75-3.36-14.09-4.87,1.05-6.53,7.15-7.33,10.1,0,0-.58,2.13-1.4,5a11.32,11.32,0,0,1-6.92-2.84s-2.92,3.2,0,5.26A11.15,11.15,0,0,0,43,84.33c-1.3,4.58-2.7,9.46-3.18,10.93q-0.24.84-.51,1.56c-19.64.71-16.61,18.7-7.4,16.72,4.49-1,8.21-3.88,11.78-11.32,7.5,1.83,12.46,5.46,18.06,4.25a7.54,7.54,0,0,0,5.48-4.3A4.43,4.43,0,0,0,72,103.77c2.65-.57,5-3,6.74-5.79-0.42,3.06,1,4.12,3.16,3.65,1.61-.35,3.52-1.72,6.14-5.58,0.85-1.25,2.6-3.93,4.57-7l-0.54,1.84c-1.32,4.5.38,8.43,4.21,7.6,2.49-.54,6.37-5.63,9.5-11-0.42,1.42-.75,2.49-0.9,3.08-1.33,4.46.22,6.05,2.76,5.51,1.61-.35,3.48-1.72,6.14-5.58,0.87-1.28,2.71-4.09,4.74-7.23L116,91.95a1.54,1.54,0,0,0,1.8,1.93l2.67-.58a1.53,1.53,0,0,0,1.14-1c3.19-10.07,11-21.24,13.13-21.71,1.3-.28,1.17,1.51.24,4.81-1.07,3.6-1.7,6.07-2.65,9.29-1.33,4.46.22,6.05,2.76,5.51,1.57-.34,3.48-1.72,6.14-5.58,0.65-1,1.84-2.77,3.24-4.93-0.25,5.18,2.31,8,6.08,7.17,2.65-.57,5-3,6.74-5.79-0.42,3.06,1,4.12,3.16,3.65,1.61-.35,3.52-1.72,6.14-5.58,2-3,9.17-14.09,12-18.58,0.77,0.35,1.31,1.15.57,3.33-1.2,3.55-2.41,8.19-3.36,11.41-1.29,4.45.22,6.05,2.76,5.51,1.57-.34,3.52-1.72,6.14-5.58,0.77-1.11,2.24-3.36,3.94-6-0.15,5.76,3.13,8.7,7.14,7.84,4.22-.91,8.1-4.88,10.93-12,0.3-.83.58-1.61,0.81-2.38A9.17,9.17,0,0,0,213,59.76l-3.29,11.46a1.87,1.87,0,0,0,2.19,2.34l3-.65c3-10.28,11.17-22.09,13.39-22.57,1.3-.28,1.16,1.48.23,4.77-0.76,2.71-2.55,9.06-3.61,12.84a1.86,1.86,0,0,0,2.19,2.32l1.93-.42a1.86,1.86,0,0,0,1.4-1.31l0.22-.77c3.34-9.8,10.68-20.25,12.75-20.7,1.3-.28,1.21,1.51.24,4.81-1,3.59-1.7,6.07-2.65,9.29-1.33,4.46.22,6.05,2.76,5.51,1.57-.34,3.52-1.72,6.14-5.58,0.66-1,1.86-2.78,3.28-5-0.26,5.2,2.3,8,6.08,7.19,2.65-.57,5-3,6.74-5.79-0.42,3.06,1,4.12,3.16,3.65,1.61-.35,3.52-1.72,6.14-5.58,1.2-1.75,4.19-6.37,7-10.77-1,4-1.7,7.06-2,7.95-0.36,2.62,1.45,6.14,4.39,5.51,1.61-.35,3.78-1.12,5.05-5.58-1.6-.18-3.78-2.07-1.88-8.3,0.39-1.37,1.76-6.16,3.26-11.47l4-.86a1,1,0,0,0,.73-0.69v0A1,1,0,0,0,294.74,30.13ZM52.33,73.8c0.42-1.58.85-3.52,2.11-3.79,1.46-.31,2.18,2.82-0.35,6.38a8.23,8.23,0,0,1-3.15,2.53C51.48,77,52,75.16,52.33,73.8ZM31.1,108.62c-3.49.75-3.63-6.76,6.12-7C34.76,106.42,32.94,108.22,31.1,108.62ZM81.37,87.53c-1.56,4.67-4.44,8.83-6.43,9.26s-2.3-3-.74-7.71,4.48-8.84,6.47-9.27S83,82.85,81.37,87.53Zm78.55-17c-1.56,4.67-4.44,8.83-6.43,9.26s-2.3-3-.74-7.71,4.48-8.84,6.47-9.27S161.53,65.88,159.93,70.56Zm37.33-.19c-2,.43-2.3-3-0.74-7.71a21.08,21.08,0,0,1,4.83-8.31,7.54,7.54,0,0,0,1.89,6.34C202,64.84,199.87,69.8,197.26,70.37Zm71.33-23.28c-1.56,4.67-4.44,8.83-6.43,9.26s-2.3-3-.74-7.71,4.47-8.84,6.47-9.27S270.19,42.41,268.59,47.09Z"/><path d="M286.91,77.3l-3,.67c0.92-3.27,1.61-5.64,2.1-7.28a1.83,1.83,0,0,0-2.14-2.31l-2,.43a1.82,1.82,0,0,0-1.37,1.26c-0.4,1.33-1.23,4.11-2.69,9.22l-3.85.83a1,1,0,0,0-.73.67v0A1,1,0,0,0,274.4,82l2.86-.62c-0.37,1.28-.73,2.56-1.07,3.82-4.79,10.28-10.44,18.91-16.31,20.18-4.53,1-6.21-2.55-4.21-8.53,1.55-4.71,4.44-8.83,6.43-9.26s0.85,4.51-1.15,7.12c0,0,4.12,3.08,5.52.09,3.77-8.2-.59-12.6-6.12-11.41-3.41.74-8,4.86-10.85,12.62a18.59,18.59,0,0,0-1.19,6c-3,4.26-6.2,7.23-9.46,7.93s-5.06-1-5.07-4.16a4.9,4.9,0,0,0,2.28.71c3.56,0.32,7-2.31,9.38-7.13,4-8.05-.59-12.6-6.16-11.4-3.38.73-8,4.86-10.81,12.61-0.08.21-.14,0.41-0.21,0.62-2.31,3.28-4.73,6.61-7,9.53,1.76-6.16,3.58-12.63,4.66-16.51a2.25,2.25,0,0,0-2.64-2.8l-1.09.24a2.25,2.25,0,0,0-1.69,1.6l-1.17,4.24c-1.89,2.81-5.08,6.75-7.68,6.83a19.52,19.52,0,0,0,.08-4.07c-0.15-2.74-1.34-5.85-3.45-5.4A4.25,4.25,0,0,0,205.72,97c-0.28-.9-0.68-1.66-1.37-1.51-3.18.69-7.5,3.92-10.69,12.1-2.39,3.49-4.65,6.76-5.2,7.47-0.81,1.06-1.55,2.1-1.93,1.82s0.21-2.57.56-3.73c1-3.46,1.17-3.7,1.73-5.75,1.51-5.47-1.83-2.7-5.15-3.75a3.09,3.09,0,0,1-1-.51c1.76-3,3-6,.73-6.82A5.69,5.69,0,0,0,176.15,99c-1.62,3.28.43,5.69,2.48,6.85-2.77,4.16-5.55,8.41-7.14,10.6a1.2,1.2,0,0,0-.08,1.28,27.92,27.92,0,0,1,1.64,3.59,1.2,1.2,0,0,0,2.26,0,114.88,114.88,0,0,1,5.86-14.63c1,0.22,2.07.84,1.16,3.52-1.2,3.55-2.41,8.19-3.36,11.41-1.32,4.46.22,6.05,2.76,5.51,1.57-.34,3.48-1.72,6.14-5.58,0.76-1.11,2.24-3.37,3.94-6-0.16,5.78,3.13,8.73,7.14,7.86,4.22-.91,8.1-4.88,10.93-12,0.3-.83.58-1.61,0.81-2.38,2.33-.12,4.64-1.9,6.63-4.08l-4.1,14.89c-6.75,6.28-12.71,9.37-11.77,13.74,0.73,3.38,4.62,4.3,7,3.79,4.87-1.05,6.2-4.55,8.22-10.65,0.41-1.25,1.67-5.66,3.17-11,2.35-2.62,4.84-5.51,7.33-8.66-0.09,5.93,3.63,9.47,10.74,7.93,4.24-.92,8-4.21,11.2-8.5,1.5,3.35,5,5,9.86,3.95,5.62-1.21,10.42-6.64,14.15-13-0.3,1.26-.53,2.17-0.65,2.58-0.36,2.62,1.45,6.14,4.39,5.51,1.61-.35,3.78-1.12,5.05-5.58-1.6-.18-3.78-2.07-1.88-8.3,0.39-1.37,1.76-6.16,3.26-11.47l4-.86a1,1,0,0,0,.73-0.69v0A1,1,0,0,0,286.91,77.3Zm-86.5,39.4c-2,.43-2.3-3-0.74-7.71a21.08,21.08,0,0,1,4.83-8.31,7.54,7.54,0,0,0,1.89,6.34C205.2,111.17,203,116.14,200.41,116.71Zm10.77,10.48c-1.19,4.15-1.66,6.09-3.23,6.43a1.43,1.43,0,0,1-1.85-1.33c-0.38-1.76,2-3.67,5.84-7.92Zm29.9-35c2-.42.85,4.51-1.15,7.12-1.48,1.89-3.31,3.81-5.51,2.76a3.87,3.87,0,0,0,.19-0.6C236.2,96.73,239.09,92.61,241.08,92.18Z"/><path d="M163.47,91.65c-2.62.83-4.85,3.28-6.48,5.53V97.11a2.21,2.21,0,0,0-2.84-2.49l-1.89.6A2.24,2.24,0,0,0,150.74,97c-0.72,4-2.9,16.15-4,21.81-17.48,8-16,23.95-7.26,21.14,5.53-1.77,10.42-5.67,13.19-19,0.18-.72.44-2.12,0.76-3.95,1.28,2.19,3.53,3.82,7.68,2.49s8.49-5.67,10.41-14.9S168.7,90,163.47,91.65Zm-24.63,43.9c-3.36,1.07-1.93-8.12,7.14-13C143.8,131.5,141.15,134.81,138.83,135.55Zm25.55-29.78c-1.1,5.09-2.78,7.56-5.28,8.36-3.74,1.19-4-3.49-4.16-5.3,0.33-1.8.64-3.67,1-5.41,0.82-1.83,3.1-6.18,6-7.11C165.19,95.26,165.53,100.71,164.39,105.77Z"/><path d="M225.19,85.9a7.6,7.6,0,0,0,5.23-5.54c0.53-2.56-.92-4.26-3.26-3.75a7.59,7.59,0,0,0-5.22,5.58C221.37,84.75,222.85,86.4,225.19,85.9Z"/><path d="M114.39,49.62a1,1,0,0,0-1.73.1,8.19,8.19,0,0,1-3.7,3.56c-1.76.65-2.86-.12-3.12-1.89a2.72,2.72,0,0,0,1.31.21c2-.11,3.65-1.82,4.59-4.66,1.56-4.75-1.33-6.88-4.29-5.78-1.7.63-3.76,3-4.77,7.08-1.21,1.76-2.3,3.33-2.59,3.7-0.43.58-.84,1.16-1.05,1s0.09-1.43.29-2.07c0.54-1.92.83-2.9,1.16-4,0.87-3-.67-3.83-2.31-3.47-1,.22-3.92,1.8-7,8.3l4-13.87A0.63,0.63,0,0,0,94.44,37l-2.34.55h0l-5.36,1.16-3.37.73-6.59,1.42a0.91,0.91,0,0,0-.7.69l-0.46,1.79a0.47,0.47,0,0,0,.12.46,0.47,0.47,0,0,0,.46.15l6.29-1.36c-0.82,2.92-2,7.13-2.7,9.42C69.7,55.49,69.21,64.5,74.22,63.42c3.15-.68,6.28-2.63,8.52-9.82,0.45-1.44,2.24-7.82,3.35-11.76l5.1-1.1L86,58.88c-0.27.93,0,2.36,1,2.15a5.72,5.72,0,0,0,1.82-.82C91.29,55,95,47.95,96.17,47.69c0.72-.16.67,0.84,0.13,2.67-0.57,2-.95,3.37-1.48,5.16-0.72,2.47.12,3.36,1.53,3.06,0.87-.19,2-1,3.41-3.1,0.47-.68,1.42-2.13,2.48-3.77,0.1,3.84,2.49,5.9,6.6,4.37,2.31-.86,4-3.09,5.58-5.71A0.67,0.67,0,0,0,114.39,49.62ZM74.09,61c-1.92.41-.21-4.68,5.07-6.89C77.48,58.9,75.42,60.69,74.09,61Zm34.67-17.65c1-.39.83,2.41-0.07,4-0.66,1.15-1.52,2.36-2.81,2a2.18,2.18,0,0,0,.06-0.35C106.45,46.2,107.7,43.71,108.77,43.32Z"/></svg>